<?xml version="1.0" encoding="UTF-8" standalone="no"?>
<!-- Created with Inkscape (http://www.inkscape.org/) -->

<svg
   xmlns:dc="http://purl.org/dc/elements/1.1/"
   xmlns:cc="http://creativecommons.org/ns#"
   xmlns:rdf="http://www.w3.org/1999/02/22-rdf-syntax-ns#"
   xmlns:svg="http://www.w3.org/2000/svg"
   xmlns="http://www.w3.org/2000/svg"
   xmlns:sodipodi="http://sodipodi.sourceforge.net/DTD/sodipodi-0.dtd"
   xmlns:inkscape="http://www.inkscape.org/namespaces/inkscape"
   width="909.13733"
   height="909.13721"
   viewBox="0 0 240.54258 240.54256"
   version="1.1"
   id="svg8"
   inkscape:version="0.92.3 (2405546, 2018-03-11)"
   sodipodi:docname="logo_round.svg">
  <defs
     id="defs2">
    <inkscape:path-effect
       effect="spiro"
       id="path-effect1024"
       is_visible="true" />
    <clipPath
       clipPathUnits="userSpaceOnUse"
       id="clipPath860">
      <rect
         style="opacity:1;fill:#2b2d42;fill-opacity:1;stroke:none;stroke-width:0.86969376;stroke-linejoin:round;stroke-miterlimit:4;stroke-dasharray:none;stroke-dashoffset:0;stroke-opacity:1"
         id="rect862"
         width="240.54257"
         height="240.54256"
         x="11.031531"
         y="-119.86626"
         ry="120.27128"
         rx="120.27128"
         d="m 131.30281,-119.86626 h 1e-5 c 66.63029,0 120.27128,53.640993 120.27128,120.27128167 C 251.5741,67.03531 197.93311,120.6763 131.30282,120.6763 h -1e-5 C 64.672521,120.6763 11.031531,67.03531 11.031531,0.40502167 11.031531,-66.225267 64.672521,-119.86626 131.30281,-119.86626 Z" />
    </clipPath>
  </defs>
  <sodipodi:namedview
     id="base"
     pagecolor="#ffffff"
     bordercolor="#666666"
     borderopacity="1.0"
     inkscape:pageopacity="0.0"
     inkscape:pageshadow="2"
     inkscape:zoom="0.49497475"
     inkscape:cx="216.89347"
     inkscape:cy="416.02072"
     inkscape:document-units="mm"
     inkscape:current-layer="layer2"
     showgrid="false"
     units="px"
     inkscape:window-width="1920"
     inkscape:window-height="1016"
     inkscape:window-x="0"
     inkscape:window-y="27"
     inkscape:window-maximized="1"
     fit-margin-top="0"
     fit-margin-left="0"
     fit-margin-right="0"
     fit-margin-bottom="0" />
  <metadata
     id="metadata5">
    <rdf:RDF>
      <cc:Work
         rdf:about="">
        <dc:format>image/svg+xml</dc:format>
        <dc:type
           rdf:resource="http://purl.org/dc/dcmitype/StillImage" />
        <dc:title></dc:title>
      </cc:Work>
    </rdf:RDF>
  </metadata>
  <g
     inkscape:label="Layer 1"
     inkscape:groupmode="layer"
     id="layer1"
     transform="translate(-11.031525,-44.842074)" />
  <g
     inkscape:groupmode="layer"
     id="layer2"
     inkscape:label="Layer 2"
     transform="translate(-11.031525,119.86626)">
    <rect
       rx="120.27128"
       style="opacity:1;fill:#2b2d42;fill-opacity:1;stroke:none;stroke-width:0.86969376;stroke-linejoin:round;stroke-miterlimit:4;stroke-dasharray:none;stroke-dashoffset:0;stroke-opacity:1"
       id="rect1020-8"
       width="240.54257"
       height="240.54256"
       x="11.031525"
       y="-119.86626"
       ry="120.27128"
       inkscape:export-xdpi="300"
       inkscape:export-ydpi="300" />
    <path
       style="fill:#ff9509;fill-opacity:1;stroke:none;stroke-width:0.26458332px;stroke-linecap:butt;stroke-linejoin:miter;stroke-opacity:1"
       d="M -2.3373238,63.354177 306.09171,-90.592844 303.41901,16.314731 -1.8027848,104.51371 Z"
       id="path1022"
       inkscape:connector-curvature="0"
       inkscape:path-effect="#path-effect1024"
       inkscape:original-d="M -2.3373238,63.354177 306.09171,-90.592844 303.41901,16.314731 -1.8027848,104.51371 Z"
       clip-path="url(#clipPath860)"
       inkscape:export-xdpi="300"
       inkscape:export-ydpi="300" />
    <g
       aria-label="Space"
       transform="matrix(0.98653673,0,0,1.013647,0.52916667,-17.462505)"
       style="font-style:normal;font-variant:normal;font-weight:600;font-stretch:normal;font-size:76.15970612px;line-height:1.25;font-family:'URW Gothic';-inkscape-font-specification:'URW Gothic, Semi-Bold';font-variant-ligatures:normal;font-variant-caps:normal;font-variant-numeric:normal;font-feature-settings:normal;text-align:center;letter-spacing:0px;word-spacing:0px;writing-mode:lr-tb;text-anchor:middle;fill:#ffffff;fill-opacity:1;stroke:none;stroke-width:1.11973667"
       id="text1660"
       inkscape:export-xdpi="300"
       inkscape:export-ydpi="300">
      <path
         d="m 16.442049,37.032662 c 0.380799,4.417263 1.370875,7.235172 3.655666,10.28156 3.351027,4.264944 8.834526,6.778214 14.851143,6.778214 10.129241,0 17.97369,-7.84445 17.97369,-18.04985 0,-4.721902 -1.675513,-8.682207 -5.02654,-11.728595 -2.208632,-2.056312 -3.960305,-2.970229 -9.519963,-5.1027 -5.33118,-1.980153 -5.483499,-2.056313 -6.245096,-2.513271 -2.056312,-1.294715 -3.122548,-3.046388 -3.122548,-5.1027 0,-3.3510271 2.360951,-5.711978 5.788137,-5.711978 3.503347,0 5.635819,2.1324718 5.940458,5.940457 H 51.551674 C 51.323195,7.5588555 50.333118,4.6647867 48.048327,1.8468776 45.001939,-1.9611077 40.127718,-4.1697392 34.872698,-4.1697392 c -9.139165,0 -16.374337,7.0828526 -16.374337,15.9935382 0,7.082853 4.112624,12.490192 11.728595,15.308101 7.539811,2.817909 8.072929,3.046388 9.748442,4.341103 1.675514,1.370875 2.58943,3.351027 2.58943,5.711978 0,4.036465 -3.122547,6.854374 -7.61597,6.854374 -4.645742,0 -7.159013,-2.284791 -7.615971,-7.006693 z"
         style="fill:#ffffff;fill-opacity:1;stroke-width:1.11973667"
         id="path1420"
         inkscape:connector-curvature="0" />
      <path
         d="m 59.055786,67.191905 h 10.129241 v -18.04985 c 3.884145,3.427187 7.76829,4.950381 12.94715,4.950381 12.185553,0 21.096243,-9.443804 21.096243,-22.238634 0,-12.718671 -8.83453,-21.9339956 -20.943924,-21.9339956 -5.788137,0 -10.662359,2.0563116 -13.937226,5.9404566 v -4.95038 H 59.055786 Z M 80.913622,19.211291 c 6.854373,0 12.109393,5.559658 12.109393,12.87099 0,7.159012 -5.25502,12.718671 -11.957074,12.718671 -7.159012,0 -12.490192,-5.483499 -12.490192,-12.870991 0,-7.235172 5.33118,-12.71867 12.337873,-12.71867 z"
         style="fill:#ffffff;fill-opacity:1;stroke-width:1.11973667"
         id="path1422"
         inkscape:connector-curvature="0" />
      <path
         d="m 152.05868,10.909883 h -9.29148 v 5.635818 c -3.50335,-4.645742 -7.69213,-6.6258946 -13.78491,-6.6258946 -12.49019,0 -21.47704,9.3676436 -21.47704,22.2386346 0,12.718671 8.91069,21.933995 21.24856,21.933995 5.94046,0 9.97692,-1.827833 14.01339,-6.473575 v 5.483499 h 9.29148 z m -22.01015,8.301408 c 7.23517,0 12.41403,5.407339 12.41403,13.099469 0,3.046388 -1.21856,6.549735 -3.04639,8.682206 -2.05631,2.513271 -5.33118,3.807986 -9.21532,3.807986 -7.38749,0 -12.49019,-5.026541 -12.49019,-12.414032 0,-7.692131 5.1027,-13.175629 12.33787,-13.175629 z"
         style="fill:#ffffff;fill-opacity:1;stroke-width:1.11973667"
         id="path1424"
         inkscape:connector-curvature="0" />
      <path
         d="m 189.8458,39.241293 c -2.51327,3.884145 -5.40733,5.559659 -9.59612,5.559659 -7.00669,0 -12.26171,-5.483499 -12.26171,-12.870991 0,-7.463651 4.95038,-12.71867 12.03323,-12.71867 4.56958,0 7.76829,1.903992 9.8246,5.788137 h 11.42396 c -1.44703,-4.264943 -2.81791,-6.473575 -5.71198,-9.139165 -4.11262,-3.807985 -9.67228,-5.9404566 -15.53658,-5.9404566 -12.49019,0 -22.23863,9.6722826 -22.23863,22.0863146 0,12.261713 10.05308,22.086315 22.54327,22.086315 9.90076,0 17.44057,-5.407339 20.94392,-14.851143 z"
         style="fill:#ffffff;fill-opacity:1;stroke-width:1.11973667"
         id="path1426"
         inkscape:connector-curvature="0" />
      <path
         d="m 249.02189,36.499544 c 0.30464,-1.523194 0.3808,-2.437111 0.3808,-3.960305 0,-13.02331 -9.21533,-22.6194326 -21.78168,-22.6194326 -12.41403,0 -22.23863,9.8246016 -22.23863,22.2386346 0,12.337872 9.97692,21.933995 22.84791,21.933995 6.93053,0 12.33787,-2.51327 16.75513,-7.615971 1.59936,-1.980152 2.66559,-3.731825 3.35103,-5.864297 h -11.04316 c -2.58943,3.046388 -5.1027,4.188784 -9.29148,4.188784 -6.01662,0 -10.43388,-3.198708 -11.65244,-8.301408 z m -32.97716,-8.910686 c 1.59936,-5.483499 5.71198,-8.377567 11.7286,-8.377567 6.2451,0 10.35772,2.970228 11.65243,8.377567 z"
         style="fill:#ffffff;fill-opacity:1;stroke-width:1.11973667"
         id="path1428"
         inkscape:connector-curvature="0" />
    </g>
    <g
       aria-label="Kalk"
       transform="matrix(0.98653673,0,0,1.013647,0.52916667,-16.404171)"
       style="font-style:normal;font-variant:normal;font-weight:600;font-stretch:normal;font-size:76.15970612px;line-height:1.25;font-family:'URW Gothic';-inkscape-font-specification:'URW Gothic, Semi-Bold';font-variant-ligatures:normal;font-variant-caps:normal;font-variant-numeric:normal;font-feature-settings:normal;text-align:center;letter-spacing:0px;word-spacing:0px;writing-mode:lr-tb;text-anchor:middle;fill:#ffffff;fill-opacity:1;stroke:none;stroke-width:1.11973667"
       id="text1666"
       inkscape:export-xdpi="300"
       inkscape:export-ydpi="300">
      <path
         d="M 58.596454,-5.2676964 H 69.030333 V -30.019601 L 86.470906,-5.2676964 H 99.037258 L 77.864859,-33.903746 99.037258,-61.549719 H 86.470906 L 69.030333,-37.254773 V -61.549719 H 58.596454 Z"
         style="fill:#ffffff;fill-opacity:1;stroke-width:1.11973667"
         id="path1431"
         inkscape:connector-curvature="0" />
      <path
         d="m 143.2444,-47.460174 h -9.29149 v 5.635819 c -3.50335,-4.645742 -7.69213,-6.625895 -13.78491,-6.625895 -12.49019,0 -21.477033,9.367644 -21.477033,22.238634 0,12.718671 8.910683,21.9339958 21.248563,21.9339958 5.94045,0 9.97692,-1.8278329 14.01338,-6.4735748 v 5.4834986 h 9.29149 z m -22.01016,8.301408 c 7.23517,0 12.41403,5.40734 12.41403,13.09947 0,3.046388 -1.21855,6.549735 -3.04639,8.682206 -2.05631,2.513271 -5.33118,3.807986 -9.21532,3.807986 -7.38749,0 -12.49019,-5.026541 -12.49019,-12.414032 0,-7.692131 5.1027,-13.17563 12.33787,-13.17563 z"
         style="fill:#ffffff;fill-opacity:1;stroke-width:1.11973667"
         id="path1433"
         inkscape:connector-curvature="0" />
      <path
         d="m 150.7961,-5.2676964 h 10.12924 V -61.549719 H 150.7961 Z"
         style="fill:#ffffff;fill-opacity:1;stroke-width:1.11973667"
         id="path1435"
         inkscape:connector-curvature="0" />
      <path
         d="m 169.09228,-5.2676964 h 10.12924 V -24.99306 l 14.39419,19.7253636 h 13.63259 l -17.51674,-21.5531966 15.07962,-20.639281 h -12.10939 l -13.48027,19.877684 v -33.967229 h -10.12924 z"
         style="fill:#ffffff;fill-opacity:1;stroke-width:1.11973667"
         id="path1437"
         inkscape:connector-curvature="0" />
    </g>
    <path
       sodipodi:type="star"
       style="opacity:1;fill:#016fb9;fill-opacity:1;stroke:none;stroke-width:1.00012493;stroke-linejoin:round;stroke-miterlimit:4;stroke-dasharray:none;stroke-dashoffset:0;stroke-opacity:1"
       id="path1510-1-1"
       sodipodi:sides="4"
       sodipodi:cx="60.402912"
       sodipodi:cy="23.780237"
       sodipodi:r1="8.354043"
       sodipodi:r2="0.50124258"
       sodipodi:arg1="1.6991196"
       sodipodi:arg2="2.4845177"
       inkscape:flatsided="false"
       inkscape:rounded="0"
       inkscape:randomized="0"
       d="m 59.333834,32.065592 0.672203,-7.979194 -7.88848,-1.375239 7.979194,0.672203 1.37524,-7.88848 -0.672204,7.979194 7.88848,1.37524 -7.979194,-0.672204 z"
       transform="matrix(-1.1745062,0.14759179,-0.14332457,-1.2067403,154.14999,-73.685068)"
       inkscape:export-xdpi="300"
       inkscape:export-ydpi="300" />
    <path
       sodipodi:type="star"
       style="opacity:1;fill:#016fb9;fill-opacity:1;stroke:none;stroke-width:1.00012493;stroke-linejoin:round;stroke-miterlimit:4;stroke-dasharray:none;stroke-dashoffset:0;stroke-opacity:1"
       id="path1510-1"
       sodipodi:sides="4"
       sodipodi:cx="60.402912"
       sodipodi:cy="23.780237"
       sodipodi:r1="8.354043"
       sodipodi:r2="0.50124258"
       sodipodi:arg1="1.6991196"
       sodipodi:arg2="2.4845177"
       inkscape:flatsided="false"
       inkscape:rounded="0"
       inkscape:randomized="0"
       d="m 59.333834,32.065592 0.672203,-7.979194 -7.88848,-1.375239 7.979194,0.672203 1.37524,-7.88848 -0.672204,7.979194 7.88848,1.37524 -7.979194,-0.672204 z"
       transform="matrix(-2.3490125,0.29518354,-0.28664912,-2.4134805,256.15528,-44.291057)"
       inkscape:export-xdpi="300"
       inkscape:export-ydpi="300" />
    <path
       sodipodi:type="star"
       style="opacity:1;fill:#016fb9;fill-opacity:1;stroke:none;stroke-width:1.00012493;stroke-linejoin:round;stroke-miterlimit:4;stroke-dasharray:none;stroke-dashoffset:0;stroke-opacity:1"
       id="path1510"
       sodipodi:sides="4"
       sodipodi:cx="60.402912"
       sodipodi:cy="23.780237"
       sodipodi:r1="8.354043"
       sodipodi:r2="0.50124258"
       sodipodi:arg1="1.6991196"
       sodipodi:arg2="2.4845177"
       inkscape:flatsided="false"
       inkscape:rounded="0"
       inkscape:randomized="0"
       d="m 59.333834,32.065592 0.672203,-7.979194 -7.88848,-1.375239 7.979194,0.672203 1.37524,-7.88848 -0.672204,7.979194 7.88848,1.37524 -7.979194,-0.672204 z"
       transform="matrix(-2.5672355,0.32260605,-0.31327878,-2.6376926,363.67558,105.09714)"
       inkscape:export-xdpi="300"
       inkscape:export-ydpi="300" />
    <path
       sodipodi:type="star"
       style="opacity:1;fill:#016fb9;fill-opacity:1;stroke:none;stroke-width:1.00012493;stroke-linejoin:round;stroke-miterlimit:4;stroke-dasharray:none;stroke-dashoffset:0;stroke-opacity:1"
       id="path1510-1-1-4"
       sodipodi:sides="4"
       sodipodi:cx="60.402912"
       sodipodi:cy="23.780237"
       sodipodi:r1="8.354043"
       sodipodi:r2="0.50124258"
       sodipodi:arg1="1.6991196"
       sodipodi:arg2="2.4845177"
       inkscape:flatsided="false"
       inkscape:rounded="0"
       inkscape:randomized="0"
       d="m 59.333834,32.065592 0.672203,-7.979194 -7.88848,-1.375239 7.979194,0.672203 1.37524,-7.88848 -0.672204,7.979194 7.88848,1.37524 -7.979194,-0.672204 z"
       transform="matrix(-1.2836177,0.16130305,-0.15663941,-1.3188463,262.97289,106.77535)"
       inkscape:export-xdpi="300"
       inkscape:export-ydpi="300" />
    <path
       sodipodi:type="star"
       style="opacity:1;fill:#016fb9;fill-opacity:1;stroke:none;stroke-width:1.00012493;stroke-linejoin:round;stroke-miterlimit:4;stroke-dasharray:none;stroke-dashoffset:0;stroke-opacity:1"
       id="path1510-1-1-4-2"
       sodipodi:sides="4"
       sodipodi:cx="60.402912"
       sodipodi:cy="23.780237"
       sodipodi:r1="8.354043"
       sodipodi:r2="0.50124258"
       sodipodi:arg1="1.6991196"
       sodipodi:arg2="2.4845177"
       inkscape:flatsided="false"
       inkscape:rounded="0"
       inkscape:randomized="0"
       d="m 59.333834,32.065592 0.672203,-7.979194 -7.88848,-1.375239 7.979194,0.672203 1.37524,-7.88848 -0.672204,7.979194 7.88848,1.37524 -7.979194,-0.672204 z"
       transform="matrix(-1.2836177,0.16130305,-0.15663941,-1.3188463,244.8004,92.623634)"
       inkscape:export-xdpi="300"
       inkscape:export-ydpi="300" />
    <path
       sodipodi:type="star"
       style="opacity:1;fill:#016fb9;fill-opacity:1;stroke:none;stroke-width:1.00012493;stroke-linejoin:round;stroke-miterlimit:4;stroke-dasharray:none;stroke-dashoffset:0;stroke-opacity:1"
       id="path1510-1-1-4-8"
       sodipodi:sides="4"
       sodipodi:cx="60.402912"
       sodipodi:cy="23.780237"
       sodipodi:r1="8.354043"
       sodipodi:r2="0.50124258"
       sodipodi:arg1="1.6991196"
       sodipodi:arg2="2.4845177"
       inkscape:flatsided="false"
       inkscape:rounded="0"
       inkscape:randomized="0"
       d="m 59.333834,32.065592 0.672203,-7.979194 -7.88848,-1.375239 7.979194,0.672203 1.37524,-7.88848 -0.672204,7.979194 7.88848,1.37524 -7.979194,-0.672204 z"
       transform="matrix(-1.2836177,0.16130305,-0.15663941,-1.3188463,212.1795,83.054291)"
       inkscape:export-xdpi="300"
       inkscape:export-ydpi="300" />
  </g>
</svg>
